<?xml version="1.0" encoding="utf-8"?>
<!-- Generator: Adobe Illustrator 18.1.1, SVG Export Plug-In . SVG Version: 6.00 Build 0)  -->
<svg version="1.1" id="Layer_1" xmlns="http://www.w3.org/2000/svg" xmlns:xlink="http://www.w3.org/1999/xlink" x="0px" y="0px"
	 viewBox="0 0 128 128" enable-background="new 0 0 128 128" xml:space="preserve" fill="#fecc47">
<path d="M112.5,88.5c0-15.6-11.7-28.5-26.7-30.5c0,0,0-0.1,0-0.1c-2.5-7-3-17.7-1.5-31.2c2.7,5.2,7.7,9.4,14.5,11.6
	c8.2-13.4,3.3-28.2-10.7-34c0-0.1,0.1-0.2,0.1-0.2c0.2-0.9-0.1-1.9-0.8-2.5c-0.7-0.6-1.7-0.8-2.6-0.4c-26.8,12.1-35.1,48.9-36,53.4
	c-0.8-0.1-1.7-0.1-2.5-0.1c-17,0-30.7,13.8-30.7,30.7c0,10.3,5.1,19.4,12.9,25l-2.6,2.7c-1,1-0.9,2.6,0.1,3.5
	c0.5,0.5,1.1,0.7,1.7,0.7c0.7,0,1.3-0.3,1.8-0.8l2.3-2.4l-1.3,2.9c-0.6,1.2,0,2.7,1.2,3.3c0.3,0.2,0.7,0.2,1,0.2
	c0.9,0,1.8-0.5,2.3-1.4l1.8-4l-0.2,4.5c-0.1,1.4,1,2.5,2.3,2.6c0,0,0.1,0,0.1,0c1.3,0,2.4-1,2.5-2.3l0.2-4.1c1.5,0.2,3,0.3,4.6,0.3
	c3.8,0,7.3-0.7,10.7-1.9c-6.6-6.5-10.8-15.5-10.8-25.5c0-12.3,6.3-23.2,15.9-29.7c-2.6-1.5-5.4-2.7-8.3-3.4
	c0.9-4.2,7.7-32.7,26.8-46.1c-1.2,4.2-1.5,8.4-0.6,12.5c-2.1,15.4-1.9,27.5,0.7,36C64.1,58.5,51.1,72,51.1,88.5
	c0,14.7,10.4,27.1,24.2,30l-1.6,3.5c-0.6,1.2,0,2.7,1.2,3.3c0.3,0.2,0.7,0.2,1,0.2c0.9,0,1.8-0.5,2.2-1.4l1.8-3.9l-0.1,4.2
	c0,1.4,1.1,2.5,2.4,2.5c0,0,0,0,0,0c1.3,0,2.5-1.1,2.5-2.4l0.1-4.3l0.9,4.3c0.2,1.2,1.3,2,2.4,2c0.2,0,0.3,0,0.5,0
	c1.3-0.3,2.2-1.6,1.9-2.9l-1.1-5.3C102.8,114.8,112.5,102.8,112.5,88.5z"/>
</svg>
