<?xml version="1.0" encoding="utf-8"?>
<!-- Generator: Adobe Illustrator 18.1.1, SVG Export Plug-In . SVG Version: 6.00 Build 0)  -->
<svg version="1.1" id="Layer_1" xmlns="http://www.w3.org/2000/svg" xmlns:xlink="http://www.w3.org/1999/xlink" x="0px" y="0px"
	 viewBox="0 0 128 128" enable-background="new 0 0 128 128" xml:space="preserve">
<g>
	<path fill="#303C42" d="M111.3,87.4c-1.5,3.6-3.3,7-5.5,10.3v11.7H22.3V97.9c-2.2-3.3-4.1-6.8-5.6-10.5C6.9,90.8,1,95.2,1,100.1
		c0,10.6,28.2,19.3,63,19.3c34.8,0,63-8.6,63-19.3C127,95.2,121.1,90.8,111.3,87.4z"/>
	<path fill="#303C42" d="M122.9,24.5h-22.3v-5L23.1,8.6l3.8,22.5h73.7v-1.5h19.7v54.7c0,1.4,1.1,2.5,2.5,2.5c1.4,0,2.5-1.1,2.5-2.5
		V27C125.4,25.6,124.3,24.5,122.9,24.5z"/>
	<rect x="27.4" y="98.8" fill="#303C42" width="73.3" height="5.5"/>
	<path fill="#303C42" d="M102.3,93.7c5.2-8.2,8.2-18.1,8.2-28.8c0-10.7-3.1-20.6-8.2-28.8H25.7c-5.2,8.2-8.2,18.1-8.2,28.8
		c0,10.7,3.1,20.6,8.2,28.8H102.3z"/>
</g>
</svg>
