<?xml version="1.0" encoding="utf-8"?>
<!-- Generator: Adobe Illustrator 18.1.1, SVG Export Plug-In . SVG Version: 6.00 Build 0)  -->
<svg version="1.1" id="Layer_1" xmlns="http://www.w3.org/2000/svg" xmlns:xlink="http://www.w3.org/1999/xlink" x="0px" y="0px"
	 viewBox="0 0 128 128" enable-background="new 0 0 128 128" xml:space="preserve">
<g>
	<path fill="#303C42" d="M48.1,42.4c-3.3,6.3-6.6,12.7-9.9,19c8.1-2.5,15.5-6.5,21.8-11.8c3.2,2.4,5.4,5.7,8.1,8.6
		c2.7,2.8,6.3,5.4,10.4,5.6c0.2-5.6-1.3-11.2-4.2-16.1c6.9,3.8,14.7,6.3,22.6,7.3c-0.6-8.8-6-17.2-14.1-22.1
		c2.5-3.8,3.6-8.5,2.9-12.9c-4.7,4.6-10.4,8.3-16.6,10.9c0.6,7-0.8,12-0.9,12.5c-0.3,1.1-1.3,1.8-2.4,1.8c-0.2,0-0.5,0-0.7-0.1
		c-1.3-0.4-2.1-1.7-1.7-3.1c0.1-0.4,1.2-4.6,0.7-10.5c-0.5-0.2-1.1-0.5-1.6-0.7c-6-3.2-12-6.3-18.1-9.5c0.5,4.7,3,9.1,6.7,12.3
		c-3.4,2.2-8,1.8-12.1,2.4c-4.1,0.6-8.8,3.4-8,7.1C36.6,44.9,42.9,44.7,48.1,42.4z"/>
	<path fill="#303C42" d="M66.2,31.8c0.6,0,1.2-0.3,1.8-0.5c0.4-0.2,0.8-0.3,1.2-0.5c-0.7-8.3-4-19.4-15.2-29.2
		c-1-0.9-2.6-0.8-3.5,0.2c-0.9,1-0.8,2.6,0.2,3.5c10.1,8.8,13,18.8,13.5,26.1C64.8,31.7,65.5,31.8,66.2,31.8z"/>
	<path fill="#303C42" d="M100.2,46.7c0.9,2.6,1.5,5.2,1.7,7.9l0.4,6.1l-6.1-0.8c-4.5-0.6-9-1.6-13.3-3.1c0.4,2.3,0.6,4.7,0.5,7.1
		l-0.2,5l-5-0.2c-4.8-0.2-9.5-2.6-13.8-7.1c-1-1.1-2-2.2-2.9-3.2c-0.6-0.8-1.3-1.5-1.9-2.2c-6,4.4-12.8,7.8-20,10l-11.3,3.5
		l10.6-20.4c0,0-0.1,0-0.1,0c-3.2,0-6.3-0.5-9.2-1.5L27.4,47C15.9,55.4,8.6,67.6,8.6,81.3C8.6,106.6,33.4,127,64,127
		c30.6,0,55.4-20.4,55.4-45.7C119.4,67.5,112,55.1,100.2,46.7z"/>
</g>
</svg>
