<?xml version="1.0" encoding="utf-8"?>
<!-- Generator: Adobe Illustrator 24.1.3, SVG Export Plug-In . SVG Version: 6.00 Build 0)  -->
<svg version="1.1" id="icon" xmlns="http://www.w3.org/2000/svg" xmlns:xlink="http://www.w3.org/1999/xlink" x="0px" y="0px"
	 viewBox="0 0 426.8 286" style="enable-background:new 0 0 426.8 286;" xml:space="preserve">
<path d="M51.7,286h213.5c12.1,0,22-9.9,22-22c0.1-3.2-2.3-5.8-5.5-6c-3.2-0.1-5.8,2.3-6,5.5c0,0.2,0,0.3,0,0.5
	c0,5.8-4.7,10.5-10.5,10.5H51.7c-22.2,0-40.2-18-40.2-40.3V49.8c0-20.1,16-37,35.6-37.5c20.2-0.6,37.1,15.3,37.6,35.6
	c0,0.4,0,0.7,0,1.1c0,0.4,0,0.8,0.1,1.2c-0.1,0.4-0.1,0.8-0.1,1.2v133.9c-14.5-13.4-37-12.5-50.4,2s-12.5,37,2,50.4
	c6.6,6.1,15.2,9.5,24.2,9.5h344.3c12.2,0,22-9.8,22-22V120.2c0.1-3.2-2.3-5.8-5.5-6c-3.2-0.1-5.8,2.3-6,5.5c0,0.2,0,0.3,0,0.5V225
	c0,5.8-4.7,10.5-10.5,10.5H60.5c-13.4,0-24.2-10.8-24.2-24.2c0-13.4,10.8-24.2,24.2-24.2c13.3,0,24.2,10.8,24.2,24.1
	c-0.1,2.9-0.6,5.8-1.5,8.6c-1.1,3,0.3,6.3,3.3,7.4s6.3-0.3,7.4-3.3l0,0c1.4-4.1,2.1-8.4,2.2-12.7c0-0.2,0-0.3,0-0.5s0-0.1,0-0.1
	V56.9H349c3.2,0.1,5.8-2.3,6-5.5c0.1-3.2-2.3-5.8-5.5-6c-0.2,0-0.3,0-0.5,0H96.1C94.2,19.8,72.5,0.1,46.8,0.8C21,1.5,0,23.5,0,49.8
	v184.4C0,262.8,23.2,285.9,51.7,286z"/>
<path d="M146.8,105.8h65.4c3.2-0.1,5.6-2.8,5.5-6c-0.1-3-2.5-5.4-5.5-5.5h-65.4c-3.2,0.1-5.6,2.8-5.5,6
	C141.4,103.2,143.8,105.6,146.8,105.8z"/>
<path d="M262.2,140.4h-2.8H146.8c-3.2,0.1-5.6,2.8-5.5,6c0.1,3,2.5,5.4,5.5,5.5h112.6C264.4,151.9,267.9,145.5,262.2,140.4z"/>
<path d="M146.8,186.6c-3.2,0.1-5.6,2.8-5.5,6c0.1,3,2.5,5.4,5.5,5.5h61.7c3.2,0.1,5.8-2.3,6-5.5s-2.3-5.8-5.5-6c-0.2,0-0.3,0-0.5,0
	H146.8z"/>
<path d="M293.8,192.4c0,3.2,2.6,5.7,5.7,5.7c0,0,0,0,0,0h66.8c3.2,0.1,5.8-2.3,6-5.5c0.1-3.2-2.3-5.8-5.5-6c-0.2,0-0.3,0-0.5,0
	h-66.8C296.4,186.6,293.8,189.2,293.8,192.4C293.8,192.3,293.8,192.4,293.8,192.4z"/>
<path d="M258.9,189.1c-0.2-0.3-0.4-0.6-0.7-0.9c-0.3-0.3-0.6-0.5-0.9-0.7c-0.3-0.2-0.6-0.4-1-0.5c-0.3-0.1-0.7-0.3-1.1-0.3
	c-0.7-0.2-1.5-0.2-2.2,0c-0.4,0.1-0.7,0.2-1.1,0.3c-0.4,0.1-0.7,0.3-1,0.5c-0.3,0.2-0.6,0.4-0.9,0.7c-0.3,0.3-0.5,0.6-0.7,0.9
	c-0.2,0.3-0.4,0.7-0.5,1c-0.1,0.3-0.2,0.7-0.3,1.1c-0.1,0.4-0.1,0.7-0.1,1.1c0,1.5,0.6,3,1.7,4.1c0.3,0.3,0.6,0.5,0.9,0.7
	c0.3,0.2,0.7,0.4,1,0.5c0.3,0.1,0.7,0.3,1.1,0.3c0.4,0.1,0.7,0.1,1.1,0.1c1.5,0,2.9-0.6,4-1.7c1.1-1.1,1.7-2.5,1.7-4.1
	c0-0.4,0-0.8-0.1-1.1c-0.1-0.4-0.2-0.7-0.3-1.1C259.3,189.8,259.1,189.4,258.9,189.1z"/>
<path d="M301.4,151.9h65.4c3.2-0.1,5.6-2.8,5.5-6c-0.1-3-2.5-5.4-5.5-5.5h-65.4c-3.2,0.1-5.6,2.8-5.5,6
	C296.1,149.4,298.4,151.8,301.4,151.9z"/>
<path d="M369.3,94.3h-2.8H254c-3.2,0.1-5.6,2.8-5.5,6c0.1,3,2.5,5.4,5.5,5.5h112.6C371.6,105.7,375.1,99.3,369.3,94.3z"/>
</svg>
