<svg id="icon" xmlns="http://www.w3.org/2000/svg" viewBox="0 0 512 512"><title>credit card</title><path d="M405.17,140.33H106.83a25.14,25.14,0,0,0-25.11,25.11V346.56a25.14,25.14,0,0,0,25.11,25.11H405.17a25.14,25.14,0,0,0,25.11-25.11V195.08a5.74,5.74,0,0,0-5.74-5.74H93.19v-23.9a13.66,13.66,0,0,1,13.64-13.64H405.17a13.66,13.66,0,0,1,13.64,13.64V174a5.74,5.74,0,0,0,11.47,0v-8.53A25.14,25.14,0,0,0,405.17,140.33Zm0,219.87H106.83a13.66,13.66,0,0,1-13.64-13.64v-97H418.81v97A13.66,13.66,0,0,1,405.17,360.2Zm13.64-159.39v37.3H93.19v-37.3Z"/><path d="M237.05,274.44H163a5.74,5.74,0,1,0,0,11.47h74a5.74,5.74,0,0,0,0-11.47Z"/><path d="M271.41,278a7.79,7.79,0,0,0-.52-1,7.56,7.56,0,0,0-.72-.87,5.34,5.34,0,0,0-.87-.7,5.27,5.27,0,0,0-1-.53,5,5,0,0,0-1.08-.33,5.74,5.74,0,0,0-5.17,1.56,7.56,7.56,0,0,0-.72.87,7.79,7.79,0,0,0-.52,1,7.06,7.06,0,0,0-.33,1.08,6,6,0,0,0-.11,1.12,5.88,5.88,0,0,0,.11,1.11,6.17,6.17,0,0,0,.33,1.08,7.79,7.79,0,0,0,.52,1,6.79,6.79,0,0,0,.72.87,5.82,5.82,0,0,0,4.05,1.68,5.25,5.25,0,0,0,1.12-.11,6.44,6.44,0,0,0,1.08-.33,5.86,5.86,0,0,0,1-.52,5.46,5.46,0,0,0,.87-.72,6.79,6.79,0,0,0,.72-.87,7.79,7.79,0,0,0,.52-1,6.17,6.17,0,0,0,.33-1.08,5.88,5.88,0,0,0,.11-1.11,6,6,0,0,0-.11-1.12A7.06,7.06,0,0,0,271.41,278Z"/><path d="M299.33,278a5.92,5.92,0,0,0-.53-1,7.48,7.48,0,0,0-.71-.87,5.76,5.76,0,0,0-5.18-1.56,4.92,4.92,0,0,0-1.07.33,4.72,4.72,0,0,0-1,.53,5.41,5.41,0,0,0-.88.7,6.58,6.58,0,0,0-.71.87,5.86,5.86,0,0,0-.52,1,6.1,6.1,0,0,0-.33,1.08,6,6,0,0,0-.12,1.12,5.89,5.89,0,0,0,.12,1.11,5.42,5.42,0,0,0,.33,1.08,5.27,5.27,0,0,0,.53,1,5.34,5.34,0,0,0,.7.87,5.53,5.53,0,0,0,.88.72,5.19,5.19,0,0,0,1,.52,6.33,6.33,0,0,0,1.07.33,5.76,5.76,0,0,0,2.24,0,6.33,6.33,0,0,0,1.07-.33,5.19,5.19,0,0,0,1-.52,5.53,5.53,0,0,0,.88-.72,6.73,6.73,0,0,0,.71-.87,5.86,5.86,0,0,0,.52-1,5.42,5.42,0,0,0,.33-1.08,4.6,4.6,0,0,0,.11-1.11,4.68,4.68,0,0,0-.11-1.12A5.33,5.33,0,0,0,299.33,278Z"/><path d="M327.31,278a7.79,7.79,0,0,0-.52-1,6.65,6.65,0,0,0-.72-.87,5.74,5.74,0,0,0-5.17-1.56,5.18,5.18,0,0,0-1.08.33,5.27,5.27,0,0,0-1,.53,5.8,5.8,0,0,0-.87.7,7.56,7.56,0,0,0-.72.87,6.63,6.63,0,0,0-.51,1,5.37,5.37,0,0,0-.33,1.08,5.26,5.26,0,0,0-.12,1.12,5.17,5.17,0,0,0,.12,1.11,4.84,4.84,0,0,0,.33,1.08,6.63,6.63,0,0,0,.51,1,6.79,6.79,0,0,0,.72.87,5.94,5.94,0,0,0,.87.72,5.86,5.86,0,0,0,1,.52,6.74,6.74,0,0,0,1.08.33,5.25,5.25,0,0,0,1.12.11,5.8,5.8,0,0,0,4.05-1.68,6.05,6.05,0,0,0,.72-.87,7.79,7.79,0,0,0,.52-1,5.42,5.42,0,0,0,.33-1.08,5.88,5.88,0,0,0,.11-1.11,6,6,0,0,0-.11-1.12A6.1,6.1,0,0,0,327.31,278Z"/></svg>