<?xml version="1.0" encoding="utf-8"?>
<!-- Generator: Adobe Illustrator 24.1.3, SVG Export Plug-In . SVG Version: 6.00 Build 0)  -->
<svg version="1.1" id="Layer_1_1_" xmlns="http://www.w3.org/2000/svg" xmlns:xlink="http://www.w3.org/1999/xlink" x="0px" y="0px"
	 viewBox="0 0 814.1 493.5" style="enable-background:new 0 0 814.1 493.5;" xml:space="preserve">
<g id="Guide">
</g>
<path d="M552.2,204.3c0-15.6-6.1-30.2-17.1-41.3c-2.5-2.5-6.2-3.2-9.4-1.9c0.1-10.8-2.8-21.5-8.6-30.9V11.4c0-3.5-2.1-6.7-5.4-8.1
	c-1.1-0.5-2.2-0.6-3.4-0.6V2.6H350.6H245.4H114c-2.3,0-4.6,0.9-6.2,2.6L2.6,110.4C1,112,0,114.2,0,116.6v368.2
	c0,4.8,3.9,8.8,8.8,8.8h394.5c1.1,0,2.3-0.2,3.4-0.7c1.1-0.4,2-1.1,2.8-1.9l105.2-105.2c1.6-1.6,2.6-3.9,2.6-6.2v-51.5
	c9.9-6.3,18.9-13.4,26.7-21.2c11-11,17.1-25.7,17.1-41.3c0-13.9-4.9-27.1-13.8-37.6C550.5,220.6,552.2,212.6,552.2,204.3z
	 M417.6,259.4l-8.8,8.8l-17.5,17.5l12.4,12.4l17.5-17.5l8.8-8.8l19.4-19.4c4.2,6.5,6.4,14.1,6.4,22c0,10.9-4.2,21.2-12,28.9
	l-8.8,8.8l-26.3,26.3l12.4,12.4l26.3-26.3l8.8-8.8l1.9-1.9c4.2,6.5,6.4,14.1,6.4,22c0,10.9-4.2,21.2-12,28.9
	c-26.6,26.6-62,41.3-99.6,41.3h-37.4c-29,0-52.6-23.6-52.6-52.6s23.6-52.6,52.6-52.6h10.3c2.3,0,4.5-0.9,6.1-2.5l91.1-89.7
	c4.2,6.5,6.5,14.1,6.5,22.1C429.5,241.5,425.3,251.7,417.6,259.4z M399.6,107.8h-133l87.7-87.7h133L399.6,107.8z M329.5,20.2
	l-90.2,90.2c-1.6,1.6-2.6,3.9-2.6,6.2v123.9L224,232c-2.9-2-6.8-2-9.7,0l-21.4,14.3L171.4,232c-1.5-1-3.2-1.5-4.9-1.5
	s-3.4,0.5-4.9,1.5l-12.7,8.5V120.2L249.1,20.2H329.5z M117.6,20.2h106.7l-87.7,87.7H29.9L117.6,20.2z M17.5,125.4h114v131.5
	c0,3.2,1.8,6.2,4.6,7.7c2.8,1.5,6.3,1.3,9-0.4l21.4-14.3l21.4,14.3c2.9,2,6.8,2,9.7,0l21.4-14.3l21.4,14.3c1.5,1,3.2,1.5,4.9,1.5
	c1.4,0,2.8-0.3,4.1-1c2.8-1.5,4.6-4.5,4.6-7.7V125.4h140.3V212l-72.2,71.1h-6.7c-38.7,0-70.1,31.5-70.1,70.1s31.5,70.1,70.1,70.1
	H353c14.2,0,28.1-2,41.4-5.6V476H17.5V125.4z M499.6,375.9L412,463.6V412c19.6-7.9,37.6-19.6,53-35c11-11,17.1-25.7,17.1-41.3
	c0-14-4.9-27.1-13.8-37.7c3.3-7.4,5.1-15.4,5.1-23.7c0-15.6-6.1-30.2-17.1-41.3c-2.5-2.5-6.1-3.1-9.2-2c0-0.2,0-0.4,0-0.6
	c0-15.6-6.1-30.2-17.1-41.3c-3.4-3.4-8.9-3.4-12.3-0.1l-5.6,5.5v-74.6l87.7-87.7v99.8v56v1.3v133.5V375.9z M531.5,294.5
	c-4.4,4.4-9.2,8.5-14.3,12.4V193.4l11.1-11.1c4.2,6.5,6.4,14.1,6.4,22c0,10.9-4.2,21.2-12,28.9c-3.4,3.4-3.4,9,0,12.4
	c3.4,3.4,9,3.4,12.4,0c0,0,0,0,0.1-0.1l1.8-1.8c4.2,6.5,6.4,14.1,6.4,22C543.5,276.5,539.2,286.8,531.5,294.5z"/>
<path d="M315.6,318.2c-19.3,0-35.1,15.7-35.1,35.1s15.7,35.1,35.1,35.1s35.1-15.7,35.1-35.1S334.9,318.2,315.6,318.2z M315.6,370.8
	c-9.7,0-17.5-7.9-17.5-17.5s7.9-17.5,17.5-17.5s17.5,7.9,17.5,17.5S325.2,370.8,315.6,370.8z"/>
<rect x="529.3" y="103.4" width="131.5" height="17.5"/>
<rect x="678.3" y="103.4" width="17.5" height="17.5"/>
<rect x="713.3" y="103.4" width="17.5" height="17.5"/>
<rect x="748.4" y="103.4" width="17.5" height="17.5"/>
<rect x="577.5" y="239.3" width="131.5" height="17.5"/>
<rect x="726.5" y="239.3" width="17.5" height="17.5"/>
<rect x="761.5" y="239.3" width="17.5" height="17.5"/>
<rect x="796.6" y="239.3" width="17.5" height="17.5"/>
<rect x="608.1" y="173.5" width="17.5" height="17.5"/>
<rect x="643.2" y="173.5" width="17.5" height="17.5"/>
<rect x="678.3" y="173.5" width="17.5" height="17.5"/>
<rect x="608.1" y="309.4" width="17.5" height="17.5"/>
<rect x="643.2" y="309.4" width="17.5" height="17.5"/>
<rect x="678.3" y="309.4" width="17.5" height="17.5"/>
<rect x="542.4" y="388.3" width="131.5" height="17.5"/>
<rect x="691.4" y="388.3" width="17.5" height="17.5"/>
<rect x="726.5" y="388.3" width="17.5" height="17.5"/>
<rect x="761.5" y="388.3" width="17.5" height="17.5"/>
</svg>
