<?xml version="1.0" encoding="utf-8"?>
<!-- Generator: Adobe Illustrator 24.1.3, SVG Export Plug-In . SVG Version: 6.00 Build 0)  -->
<svg version="1.1" id="icon" xmlns="http://www.w3.org/2000/svg" xmlns:xlink="http://www.w3.org/1999/xlink" x="0px" y="0px"
	 viewBox="0 0 469.5 344.5" style="enable-background:new 0 0 469.5 344.5;" xml:space="preserve">
<path d="M434.4,0H35.1C15.7,0,0,15.7,0,35.1v274.3c0,19.4,15.7,35.1,35.1,35.1h399.3c19.4,0,35.1-15.7,35.1-35.1V97.1
	c-0.1-3.2-2.8-5.6-6-5.5c-3,0.1-5.4,2.5-5.5,5.5v212.3c0,13.1-10.6,23.6-23.6,23.6H35.1c-13.1,0-23.6-10.6-23.6-23.6V35.1
	c0-13.1,10.6-23.6,23.6-23.7h399.3c13.1,0,23.6,10.6,23.6,23.7v30.5H31.9c-3.2-0.1-5.8,2.3-6,5.5c-0.1,3.2,2.3,5.8,5.5,6
	c0.2,0,0.3,0,0.5,0h431.8c3.2,0,5.7-2.6,5.7-5.7c0,0,0,0,0,0V35.1C469.5,15.7,453.8,0,434.4,0z"/>
<path d="M410.8,43.9c0.7,0.3,1.4,0.4,2.2,0.4c0.4,0,0.7,0,1.1-0.1c0.4-0.1,0.7-0.2,1.1-0.3c0.4-0.1,0.7-0.3,1-0.5
	c2.6-1.8,3.3-5.3,1.6-7.9c-0.2-0.3-0.4-0.6-0.7-0.9c-0.3-0.3-0.6-0.5-0.9-0.7c-0.3-0.2-0.7-0.4-1-0.5c-0.3-0.1-0.7-0.3-1.1-0.3
	c-1.9-0.4-3.8,0.2-5.2,1.6c-2.2,2.2-2.3,5.8-0.1,8c0.3,0.3,0.6,0.6,0.9,0.8C410.1,43.5,410.5,43.7,410.8,43.9z"/>
<path d="M381.2,44.2c0.4-0.1,0.7-0.2,1.1-0.3c0.4-0.1,0.7-0.3,1-0.5c0.3-0.2,0.6-0.4,0.9-0.7c1.1-1.1,1.7-2.5,1.7-4.1
	c0-0.4,0-0.8-0.1-1.1c-0.1-0.4-0.2-0.7-0.3-1.1c-0.1-0.3-0.3-0.7-0.5-1c-0.2-0.3-0.5-0.6-0.7-0.9c-0.3-0.3-0.6-0.5-0.9-0.7
	c-0.3-0.2-0.6-0.4-1-0.5c-0.3-0.1-0.7-0.3-1.1-0.3c-0.7-0.2-1.5-0.2-2.2,0c-0.4,0.1-0.7,0.2-1.1,0.3c-0.4,0.1-0.7,0.3-1,0.5
	c-0.3,0.2-0.6,0.4-0.9,0.7c-2.2,2.2-2.2,5.9,0,8.1c1.1,1.1,2.5,1.7,4.1,1.7C380.4,44.3,380.8,44.3,381.2,44.2z"/>
<path d="M344.9,43.9c0.3,0.1,0.7,0.3,1.1,0.3c0.4,0.1,0.7,0.1,1.1,0.1c3.2,0,5.7-2.5,5.7-5.7c0-1.5-0.6-3-1.7-4.1
	c-0.3-0.3-0.6-0.5-0.9-0.7c-0.3-0.2-0.7-0.4-1-0.5c-0.3-0.2-0.7-0.3-1.1-0.3c-0.7-0.2-1.5-0.2-2.2,0c-0.4,0.1-0.7,0.2-1.1,0.3
	c-0.3,0.1-0.7,0.3-1,0.5c-0.3,0.2-0.6,0.4-0.9,0.7c-2.2,2.2-2.2,5.9,0,8.1c0.3,0.3,0.6,0.5,0.9,0.7
	C344.2,43.5,344.5,43.7,344.9,43.9z"/>
<path d="M33.5,142.4c0,4,3.3,7.3,7.3,7.3h72.3c4,0.2,7.4-3,7.6-7c0.2-4-3-7.4-7-7.6c-0.2,0-0.4,0-0.6,0H40.8
	C36.8,135.2,33.5,138.4,33.5,142.4C33.5,142.4,33.5,142.4,33.5,142.4z"/>
<path d="M164,138.4c-0.3-0.4-0.6-0.8-0.9-1.1c-0.3-0.3-0.7-0.6-1.1-0.9c-0.4-0.3-0.8-0.5-1.3-0.7c-0.4-0.2-0.9-0.3-1.4-0.4
	c-3.9-0.8-7.8,1.8-8.6,5.7c-0.1,0.5-0.1,1-0.1,1.5c0,0.5,0,0.9,0.2,1.4c0.1,0.5,0.2,0.9,0.4,1.4c0.2,0.4,0.4,0.9,0.7,1.3
	c0.3,0.4,0.6,0.8,0.9,1.1c2.8,2.8,7.4,2.9,10.3,0c0,0,0,0,0,0c0.3-0.3,0.6-0.7,0.9-1.1c0.3-0.4,0.5-0.8,0.7-1.3
	c0.2-0.4,0.3-0.9,0.4-1.4c0.1-0.5,0.1-0.9,0.1-1.4c0-0.5,0-1-0.1-1.4c-0.1-0.5-0.2-0.9-0.4-1.3C164.4,139.2,164.2,138.8,164,138.4z"
	/>
<path d="M427.2,258.1c1.2-3.8-0.9-7.9-4.8-9.1l-44.1-13.9c-3.8-1.2-7.9,0.9-9.1,4.7c-0.5,1.4-0.5,3,0,4.4l13.9,44.1
	c1.2,3.8,5.3,6,9.1,4.8c1.1-0.4,2.1-1,3-1.8l10-10l8.3,8.3c2.8,2.8,7.5,2.8,10.3,0c2.8-2.8,2.8-7.5,0-10.3l-13.4-13.4
	c-2.8-2.8-7.5-2.8-10.3,0l-6.6,6.6l-6.1-19.3l30.8,9.7C421.9,264.1,425.9,261.9,427.2,258.1z"/>
<path d="M224.7,135.2c-4,0-7.3,3.3-7.3,7.3v41.7c0,4,3.3,7.3,7.3,7.3h77.3c4,0,7.3-3.3,7.3-7.3c0,0,0,0,0,0v-41.7
	c0-4-3.3-7.3-7.3-7.3l0,0H224.7z M294.6,176.8h-62.7v-27.1h62.7L294.6,176.8z"/>
<path d="M436,184.1v-41.7c0-4-3.3-7.3-7.3-7.3h-77.3c-4,0-7.3,3.3-7.3,7.3l0,0v41.7c0,4,3.2,7.3,7.3,7.3c0,0,0,0,0,0h77.3
	C432.7,191.4,436,188.1,436,184.1z M421.4,176.8h-62.7v-27.1h62.7L421.4,176.8z"/>
<path d="M33.5,180.3c0,4,3.3,7.3,7.3,7.3h72.3c4,0.2,7.4-3,7.6-7c0.2-4-3-7.4-7-7.6c-0.2,0-0.4,0-0.6,0H40.8
	C36.8,173,33.5,176.3,33.5,180.3C33.5,180.3,33.5,180.3,33.5,180.3z"/>
<path d="M164,176.3c-0.3-0.4-0.6-0.8-0.9-1.1c-0.3-0.3-0.7-0.6-1.1-0.9c-0.4-0.3-0.8-0.5-1.3-0.7c-0.4-0.2-0.9-0.3-1.4-0.4
	c-3.9-0.8-7.8,1.8-8.6,5.7c-0.1,0.5-0.1,1-0.1,1.5c0,0.5,0,0.9,0.2,1.4c0.1,0.5,0.2,0.9,0.4,1.4c0.2,0.4,0.4,0.9,0.7,1.3
	c0.3,0.4,0.6,0.8,0.9,1.1c2.8,2.8,7.4,2.9,10.3,0c0,0,0,0,0,0c0.3-0.3,0.6-0.7,0.9-1.1c0.3-0.4,0.5-0.8,0.7-1.3
	c0.2-0.4,0.3-0.9,0.4-1.4c0.1-0.5,0.1-0.9,0.1-1.4c0-0.5,0-1-0.1-1.4c-0.1-0.5-0.2-0.9-0.4-1.3C164.4,177.1,164.2,176.7,164,176.3z"
	/>
</svg>
