<?xml version="1.0" encoding="utf-8"?>
<!-- Generator: Adobe Illustrator 24.1.3, SVG Export Plug-In . SVG Version: 6.00 Build 0)  -->
<svg version="1.1" id="Слой_1" xmlns="http://www.w3.org/2000/svg" xmlns:xlink="http://www.w3.org/1999/xlink" x="0px" y="0px"
	 viewBox="0 0 25 18" style="enable-background:new 0 0 25 18;" xml:space="preserve">
<path d="M19.5,13c-1.4,0-2.5,1.1-2.5,2.5s1.1,2.5,2.5,2.5s2.5-1.1,2.5-2.5S20.9,13,19.5,13z M19.5,14c0.8,0,1.5,0.7,1.5,1.5
	S20.3,17,19.5,17S18,16.3,18,15.5S18.7,14,19.5,14z M6.5,13C5.1,13,4,14.1,4,15.5S5.1,18,6.5,18S9,16.9,9,15.5S7.9,13,6.5,13z
	 M6.5,14C7.3,14,8,14.7,8,15.5S7.3,17,6.5,17S5,16.3,5,15.5S5.7,14,6.5,14z M1.5,0C0.7,0,0,0.7,0,1.5v11C0,13.3,0.7,14,1.5,14h2
	c0.7,0,0.7-1,0-1h-2C1.2,13,1,12.8,1,12.5v-11C1,1.2,1.2,1,1.5,1h13C14.8,1,15,1.2,15,1.5V13H9.5c-0.7,0-0.6,1,0,1h7
	c0.7,0,0.7-1,0-1H16V4h4.2L24,9.9v2.6c0,0.3-0.2,0.5-0.5,0.5h-1c-0.7,0-0.7,1,0,1h1c0.8,0,1.5-0.7,1.5-1.5V9.8c0-0.1,0-0.2-0.1-0.3
	l-4-6.3C20.8,3.1,20.7,3,20.5,3H16V1.5C16,0.7,15.3,0,14.5,0H1.5z"/>
</svg>
