<svg id="icon" xmlns="http://www.w3.org/2000/svg" viewBox="0 0 512 512"><title>Swipe credit card</title><path d="M480.64,142.21h-54L325.11,109.13a42.88,42.88,0,0,0-36.56,4.7l-63.38,40.66a5.74,5.74,0,0,0,6.19,9.66l63.38-40.67A31.42,31.42,0,0,1,321.55,120L424,153.4a6,6,0,0,0,1.78.28H474.9V254.44H458.64a5.75,5.75,0,0,0-5.09,3.08c-.1.2-9.85,18.34-31.14,25.92V256.13c10-3.93,21.1-11.1,27.94-24.18a5.73,5.73,0,0,0-10.16-5.32c-11.42,21.83-39.79,22.79-39.94,22.8-38,0-48.93-26.53-49.37-27.63a5.73,5.73,0,0,0-5.35-3.68h-56.1a16.18,16.18,0,0,1,0-32.35h67a5.74,5.74,0,1,0,0-11.47h-67a27.65,27.65,0,0,0,0,55.29h52.5c4.88,9,20.77,31.31,58.43,31.31a62.56,62.56,0,0,0,10.58-1.37v85.13H86.31V307.5h305a5.74,5.74,0,1,0,0-11.47H80.58a5.74,5.74,0,0,0-5.74,5.74v42.89H31.36a5.74,5.74,0,0,0,0,11.47H410.94V380a13.59,13.59,0,0,1-13.58,13.58H99.89A13.59,13.59,0,0,1,86.31,380v-5.34a5.74,5.74,0,0,0-11.47,0V380a24.9,24.9,0,0,0,4,13.58H47.14a5.74,5.74,0,1,0,0,11.47H397.36A25.08,25.08,0,0,0,422.41,380v-84.5c22.57-6.52,35.07-22.7,39.48-29.54h18.75a5.73,5.73,0,0,0,5.73-5.74V147.94A5.73,5.73,0,0,0,480.64,142.21Z"/><path d="M74.84,199.35v2.24a5.74,5.74,0,0,0,11.47,0v-2.24a13.59,13.59,0,0,1,13.58-13.58H250a5.74,5.74,0,0,0,0-11.47H99.89A25.08,25.08,0,0,0,74.84,199.35Z"/><path d="M341.35,271.28a5.74,5.74,0,0,0,0-11.47H267.52a5.74,5.74,0,0,0,0,11.47Z"/><path d="M246.17,262.36a6.05,6.05,0,0,0-.72-.87,5.78,5.78,0,0,0-5.18-1.58,9.33,9.33,0,0,0-1.07.33,6.28,6.28,0,0,0-1,.53,5.47,5.47,0,0,0-.86.72,5,5,0,0,0-.72.87,5.19,5.19,0,0,0-.53,1,5.66,5.66,0,0,0-.33,1.06,6.09,6.09,0,0,0-.1,1.13,6,6,0,0,0,.1,1.12,6.36,6.36,0,0,0,.33,1.08,6.75,6.75,0,0,0,.53,1,4.91,4.91,0,0,0,.72.86,4.51,4.51,0,0,0,.86.71,6.34,6.34,0,0,0,1,.54,6.49,6.49,0,0,0,1.07.32,5.38,5.38,0,0,0,1.12.11,5.44,5.44,0,0,0,1.14-.11,6.11,6.11,0,0,0,1.06-.32,5.91,5.91,0,0,0,1-.54,4.91,4.91,0,0,0,.87-.71,6,6,0,0,0,.72-.86,7.86,7.86,0,0,0,.53-1,8.9,8.9,0,0,0,.33-1.08,6,6,0,0,0,.1-1.12,6.09,6.09,0,0,0-.1-1.13,7.66,7.66,0,0,0-.33-1.06A5.82,5.82,0,0,0,246.17,262.36Z"/><path d="M221.19,262.36a4.91,4.91,0,0,0-.71-.87,5.78,5.78,0,0,0-5.18-1.58,7.66,7.66,0,0,0-1.06.33,6.06,6.06,0,0,0-1,.53,6.56,6.56,0,0,0-.86.72,4.91,4.91,0,0,0-.71.87,5.19,5.19,0,0,0-.53,1,5.66,5.66,0,0,0-.33,1.06,5.34,5.34,0,0,0-.1,1.13,5.25,5.25,0,0,0,.1,1.12,6.36,6.36,0,0,0,.33,1.08,6.75,6.75,0,0,0,.53,1,4.85,4.85,0,0,0,.71.86,5.23,5.23,0,0,0,.86.71,6.11,6.11,0,0,0,1,.54,5.63,5.63,0,0,0,1.06.32,5.81,5.81,0,0,0,2.25,0,5.56,5.56,0,0,0,2.06-.86,4.91,4.91,0,0,0,.87-.71,5.32,5.32,0,0,0,.71-.86,6.75,6.75,0,0,0,.53-1,5.57,5.57,0,0,0,.33-1.08,6,6,0,0,0,.1-1.12,6.09,6.09,0,0,0-.1-1.13,5,5,0,0,0-.33-1.06A4.27,4.27,0,0,0,221.19,262.36Z"/><path d="M196.14,262.36a5.34,5.34,0,0,0-.7-.87,6.65,6.65,0,0,0-.87-.72,6.75,6.75,0,0,0-1-.53,8.39,8.39,0,0,0-1.08-.33,5.76,5.76,0,0,0-5.17,1.58,5,5,0,0,0-.72.87,5.19,5.19,0,0,0-.53,1,6.48,6.48,0,0,0-.32,1.06,5.35,5.35,0,0,0-.11,1.13,5.25,5.25,0,0,0,.11,1.12,7.36,7.36,0,0,0,.32,1.08,6.75,6.75,0,0,0,.53,1,4.91,4.91,0,0,0,.72.86,5.72,5.72,0,0,0,8.1,0,4.85,4.85,0,0,0,.71-.86,5.27,5.27,0,0,0,.53-1,5.57,5.57,0,0,0,.33-1.08,5.26,5.26,0,0,0,.12-1.12,5.35,5.35,0,0,0-.12-1.13,5,5,0,0,0-.33-1.06A4.27,4.27,0,0,0,196.14,262.36Z"/><path d="M34.23,224.78A5.74,5.74,0,0,0,40,230.52H74.84v44.25a5.74,5.74,0,0,0,11.47,0V230.52h41.85a5.74,5.74,0,1,0,0-11.47H40A5.74,5.74,0,0,0,34.23,224.78Z"/></svg>