<?xml version="1.0" encoding="utf-8"?>
<!-- Generator: Adobe Illustrator 24.1.3, SVG Export Plug-In . SVG Version: 6.00 Build 0)  -->
<svg version="1.1" id="icon" xmlns="http://www.w3.org/2000/svg" xmlns:xlink="http://www.w3.org/1999/xlink" x="0px" y="0px"
	 viewBox="0 0 469.5 332.3" style="enable-background:new 0 0 469.5 332.3;" xml:space="preserve">
<path d="M43.2,332.3h384.4c11.7,0,21.2-9.5,21.2-21.2V204.3h3.8c9.3,0,16.9-7.6,16.9-16.9v-42.6c0-9.3-7.6-16.9-16.9-16.9h-88.5
	c-21.1,0-38.2,17.1-38.2,38.2c0,21.1,17.1,38.2,38.2,38.2h73.3v36.9H323c-3.2-0.1-5.8,2.3-6,5.5c-0.1,3.2,2.3,5.8,5.5,6
	c0.2,0,0.3,0,0.5,0h114.4v58.4c0,5.4-4.4,9.8-9.8,9.8H43.2c-17.5,0-31.7-14.2-31.7-31.7v-36.5h238.1c3.2-0.1,5.6-2.8,5.5-6
	c-0.1-3-2.5-5.4-5.5-5.5H11.5v-198c0-17.5,14.2-31.7,31.7-31.7h384.4c5.4,0,9.8,4.4,9.8,9.8v88.3c-0.1,3.2,2.3,5.8,5.5,6
	c3.2,0.1,5.8-2.3,6-5.5c0-0.2,0-0.3,0-0.5V21.2c0-11.7-9.5-21.2-21.2-21.2H43.2C19.4,0,0,19.4,0,43.2v245.9
	C0,312.9,19.3,332.3,43.2,332.3z M337.4,166.1c0-14.7,12-26.7,26.7-26.7h88.5c3,0,5.4,2.4,5.4,5.4v42.6c0,3-2.4,5.4-5.4,5.4h-88.5
	C349.3,192.8,337.4,180.9,337.4,166.1z"/>
<path d="M367.7,161.3c-0.6-0.4-1.3-0.7-2.1-0.9c-0.7-0.2-1.5-0.2-2.2,0c-0.4,0.1-0.7,0.2-1.1,0.3c-0.7,0.3-1.3,0.7-1.9,1.3
	c-1.1,1.1-1.7,2.5-1.7,4c0,0.4,0,0.8,0.1,1.1c0.1,0.4,0.2,0.7,0.3,1.1c0.1,0.3,0.3,0.7,0.5,1c0.2,0.3,0.5,0.6,0.7,0.9
	c0.3,0.3,0.6,0.5,0.9,0.7c0.3,0.2,0.7,0.4,1,0.5c0.3,0.1,0.7,0.3,1.1,0.3c0.4,0.1,0.7,0.1,1.1,0.1c0.4,0,0.8,0,1.1-0.1
	c0.7-0.1,1.4-0.4,2.1-0.9c0.3-0.2,0.6-0.4,0.9-0.7c0.3-0.3,0.5-0.6,0.7-0.9c0.2-0.3,0.4-0.6,0.5-1c0.1-0.3,0.3-0.7,0.3-1.1
	c0.1-0.4,0.1-0.7,0.1-1.1c0-1.5-0.6-3-1.7-4C368.3,161.8,368,161.5,367.7,161.3z"/>
<path d="M285.2,241.2c-3.2,0.1-5.6,2.8-5.5,6c0.1,3,2.5,5.4,5.5,5.5h2.1c3.2,0.1,5.8-2.3,6-5.5c0.1-3.2-2.3-5.8-5.5-6
	c-0.2,0-0.3,0-0.5,0H285.2z"/>
</svg>
